<?xml version="1.0" encoding="UTF-8" standalone="no"?>
<!-- Created with Inkscape (http://www.inkscape.org/) -->

<svg
   width="64"
   height="64"
   viewBox="0 0 16.933333 16.933333"
   version="1.1"
   id="svg1"
   inkscape:version="1.4.3 (0d15f75042, 2025-12-25)"
   sodipodi:docname="buckshot.svg"
   inkscape:export-filename="../cookie/buckshot.png"
   inkscape:export-xdpi="384"
   inkscape:export-ydpi="384"
   xmlns:inkscape="http://www.inkscape.org/namespaces/inkscape"
   xmlns:sodipodi="http://sodipodi.sourceforge.net/DTD/sodipodi-0.dtd"
   xmlns="http://www.w3.org/2000/svg"
   xmlns:svg="http://www.w3.org/2000/svg">
  <sodipodi:namedview
     id="namedview1"
     pagecolor="#ffffff"
     bordercolor="#000000"
     borderopacity="0.25"
     inkscape:showpageshadow="2"
     inkscape:pageopacity="0.0"
     inkscape:pagecheckerboard="true"
     inkscape:deskcolor="#d1d1d1"
     inkscape:document-units="px"
     showgrid="true"
     inkscape:zoom="6.8496"
     inkscape:cx="22.994043"
     inkscape:cy="32.70264"
     inkscape:window-width="1920"
     inkscape:window-height="1056"
     inkscape:window-x="0"
     inkscape:window-y="24"
     inkscape:window-maximized="1"
     inkscape:current-layer="layer1">
    <inkscape:grid
       id="grid1"
       units="px"
       originx="0"
       originy="0"
       spacingx="0.52916666"
       spacingy="0.52916666"
       empcolor="#0099e5"
       empopacity="0.30196078"
       color="#0099e5"
       opacity="0.14901961"
       empspacing="4"
       enabled="true"
       visible="true" />
  </sodipodi:namedview>
  <defs
     id="defs1" />
  <g
     inkscape:label="Layer 1"
     inkscape:groupmode="layer"
     id="layer1">
    <path
       id="path3"
       style="fill:#ffffff;stroke:none;stroke-width:0.264583;stroke-linecap:square;paint-order:stroke markers fill"
       d="M 2.1166666 5.2916666 L 2.1166666 11.641666 L 2.6458333 11.641666 L 2.6458333 11.1125 L 4.2333332 11.1125 L 14.816666 11.1125 L 14.816666 5.8208332 L 4.2333332 5.8208332 L 2.6458333 5.8208332 L 2.6458333 5.2916666 L 2.1166666 5.2916666 z M 2.6458333 6.3499999 L 3.7041666 6.3499999 L 3.7041666 10.583333 L 2.6458333 10.583333 L 2.6458333 6.3499999 z M 5.2916666 6.3499999 A 1.0583333 1.0583333 0 0 1 6.3499999 7.4083332 A 1.0583333 1.0583333 0 0 1 5.2916666 8.4666665 A 1.0583333 1.0583333 0 0 1 4.2333332 7.4083332 A 1.0583333 1.0583333 0 0 1 5.2916666 6.3499999 z M 8.4666665 6.3499999 A 1.0583333 1.0583333 0 0 1 9.5249998 7.4083332 A 1.0583333 1.0583333 0 0 1 8.4666665 8.4666665 A 1.0583333 1.0583333 0 0 1 7.4083332 7.4083332 A 1.0583333 1.0583333 0 0 1 8.4666665 6.3499999 z M 11.641666 6.3499999 A 1.0583333 1.0583333 0 0 1 12.7 7.4083332 A 1.0583333 1.0583333 0 0 1 11.641666 8.4666665 A 1.0583333 1.0583333 0 0 1 10.583333 7.4083332 A 1.0583333 1.0583333 0 0 1 11.641666 6.3499999 z M 6.8791665 8.4666665 A 1.0583333 1.0583333 0 0 1 7.9374998 9.5249998 A 1.0583333 1.0583333 0 0 1 6.8791665 10.583333 A 1.0583333 1.0583333 0 0 1 5.8208332 9.5249998 A 1.0583333 1.0583333 0 0 1 6.8791665 8.4666665 z M 10.054166 8.4666665 A 1.0583333 1.0583333 0 0 1 11.1125 9.5249998 A 1.0583333 1.0583333 0 0 1 10.054166 10.583333 A 1.0583333 1.0583333 0 0 1 8.9958332 9.5249998 A 1.0583333 1.0583333 0 0 1 10.054166 8.4666665 z M 13.229166 8.4666665 A 1.0583333 1.0583333 0 0 1 14.2875 9.5249998 A 1.0583333 1.0583333 0 0 1 13.229166 10.583333 A 1.0583333 1.0583333 0 0 1 12.170833 9.5249998 A 1.0583333 1.0583333 0 0 1 13.229166 8.4666665 z " />
  </g>
</svg>
