<?xml version="1.0" encoding="UTF-8" standalone="no"?>
<!-- Created with Inkscape (http://www.inkscape.org/) -->

<svg
   width="64"
   height="64"
   viewBox="0 0 16.933333 16.933333"
   version="1.1"
   id="svg1"
   sodipodi:docname="flechette.svg"
   inkscape:version="1.4.3 (0d15f75042, 2025-12-25)"
   inkscape:export-filename="../cookie/flechette.png"
   inkscape:export-xdpi="384"
   inkscape:export-ydpi="384"
   xmlns:inkscape="http://www.inkscape.org/namespaces/inkscape"
   xmlns:sodipodi="http://sodipodi.sourceforge.net/DTD/sodipodi-0.dtd"
   xmlns="http://www.w3.org/2000/svg"
   xmlns:svg="http://www.w3.org/2000/svg">
  <sodipodi:namedview
     id="namedview1"
     pagecolor="#ffffff"
     bordercolor="#000000"
     borderopacity="0.25"
     inkscape:showpageshadow="2"
     inkscape:pageopacity="0.0"
     inkscape:pagecheckerboard="0"
     inkscape:deskcolor="#d1d1d1"
     inkscape:document-units="px"
     showgrid="true"
     inkscape:zoom="9.6867972"
     inkscape:cx="29.266639"
     inkscape:cy="28.389156"
     inkscape:window-width="1920"
     inkscape:window-height="1056"
     inkscape:window-x="0"
     inkscape:window-y="24"
     inkscape:window-maximized="1"
     inkscape:current-layer="layer1">
    <inkscape:grid
       id="grid1"
       units="px"
       originx="0"
       originy="0"
       spacingx="0.52916666"
       spacingy="0.52916666"
       empcolor="#0099e5"
       empopacity="0.30196078"
       color="#0099e5"
       opacity="0.14901961"
       empspacing="4"
       enabled="true"
       visible="true" />
  </sodipodi:namedview>
  <defs
     id="defs1" />
  <g
     inkscape:label="Layer 1"
     inkscape:groupmode="layer"
     id="layer1">
    <path
       id="path3-5-1"
       style="fill:#ffffff;stroke:none;stroke-width:0.264583;stroke-linecap:square;paint-order:stroke markers fill"
       d="M 2.1166666 5.2916666 L 2.1166666 11.641666 L 2.6458333 11.641666 L 2.6458333 11.1125 L 4.2333332 11.1125 L 14.816666 11.1125 L 14.816666 5.8208332 L 4.2333332 5.8208332 L 2.6458333 5.8208332 L 2.6458333 5.2916666 L 2.1166666 5.2916666 z M 2.6458333 6.3499999 L 3.7041666 6.3499999 L 3.7041666 10.583333 L 2.6458333 10.583333 L 2.6458333 6.3499999 z M 4.7624999 6.3499999 L 6.3499999 6.6145832 L 8.4666665 6.6145832 L 14.2875 6.8791665 L 8.4666665 7.1437499 L 6.3499999 7.1437499 L 4.7624999 7.4083332 L 4.2333332 7.1437499 L 4.2333332 6.6145832 L 4.7624999 6.3499999 z M 4.7624999 7.9374998 L 6.3499999 8.2020832 L 8.4666665 8.2020832 L 14.2875 8.4666665 L 8.4666665 8.7312498 L 6.3499999 8.7312498 L 4.7624999 8.9958332 L 4.2333332 8.7312498 L 4.2333332 8.2020832 L 4.7624999 7.9374998 z M 4.7624999 9.5249998 L 6.3499999 9.7895831 L 8.4666665 9.7895831 L 14.2875 10.054166 L 8.4666665 10.31875 L 6.3499999 10.31875 L 4.7624999 10.583333 L 4.2333332 10.31875 L 4.2333332 9.7895831 L 4.7624999 9.5249998 z " />
  </g>
</svg>
