<?xml version="1.0" encoding="UTF-8" standalone="no"?>
<!-- Created with Inkscape (http://www.inkscape.org/) -->

<svg
   width="64"
   height="64"
   viewBox="0 0 16.933333 16.933333"
   version="1.1"
   id="svg1"
   inkscape:version="1.4.3 (0d15f75042, 2025-12-25)"
   sodipodi:docname="mg_bipod_deployed.svg"
   inkscape:export-filename="../cookie/mg_bipod_deployed.png"
   inkscape:export-xdpi="96"
   inkscape:export-ydpi="96"
   xmlns:inkscape="http://www.inkscape.org/namespaces/inkscape"
   xmlns:sodipodi="http://sodipodi.sourceforge.net/DTD/sodipodi-0.dtd"
   xmlns="http://www.w3.org/2000/svg"
   xmlns:svg="http://www.w3.org/2000/svg">
  <sodipodi:namedview
     id="namedview1"
     pagecolor="#000000"
     bordercolor="#000000"
     borderopacity="0.25"
     inkscape:showpageshadow="2"
     inkscape:pageopacity="0.0"
     inkscape:pagecheckerboard="true"
     inkscape:deskcolor="#d1d1d1"
     inkscape:document-units="px"
     inkscape:zoom="8.0625"
     inkscape:cx="37.023256"
     inkscape:cy="33.488372"
     inkscape:window-width="1920"
     inkscape:window-height="1056"
     inkscape:window-x="0"
     inkscape:window-y="24"
     inkscape:window-maximized="1"
     inkscape:current-layer="layer1"
     inkscape:export-bgcolor="#00000000" />
  <defs
     id="defs1">
    <inkscape:path-effect
       effect="mirror_symmetry"
       start_point="9.6251182,-0.87651175"
       end_point="10.290033,16.043762"
       center_point="9.9575757,7.583625"
       id="path-effect2"
       is_visible="true"
       lpeversion="1.2"
       lpesatellites=""
       mode="vertical"
       discard_orig_path="false"
       fuse_paths="false"
       oposite_fuse="false"
       split_items="false"
       split_open="false"
       link_styles="false" />
  </defs>
  <g
     inkscape:label="Layer 1"
     inkscape:groupmode="layer"
     id="layer1">
    <g
       id="g2"
       transform="rotate(2.2503911,-13.267548,-29.929068)"
       style="stroke:#000000;stroke-width:0.52916666;stroke-dasharray:none">
      <path
         id="rect1"
         style="fill:#ffffff;stroke:#000000;stroke-width:0.52916666;stroke-linecap:square;paint-order:stroke markers fill;stroke-dasharray:none"
         d="M 10.019955,-0.27947089 9.6386718,-0.13943242 8.4946665,-0.39943638 8.3737807,0.13483433 8.0042812,-0.12108674 C 7.8675071,-0.21571408 7.7030066,-0.23778019 7.5551964,-0.19591615 7.4402331,-0.16335515 7.3353063,-0.09212014 7.2617072,0.01425982 L 6.6489159,0.90040131 C 6.4860664,1.1357837 6.5368936,1.4542693 6.7608933,1.6269643 l -0.4515701,0.1402196 0.4706169,1.5155974 0.7654482,-0.2376837 1.172e-4,6.9742574 -0.3084304,-3e-6 -1.46e-5,2.854329 c 0.5939168,0.293042 1.2229706,0.272935 1.8700347,-7e-5 l 1.46e-5,-2.85433 -0.3089239,1.51e-4 4.19e-4,-7.3559024 -0.025494,-2.002e-4 0.7042519,-0.2186813 0.2361427,-1.0413617 c 0.2451205,0.2354285 0.5267876,0.4390825 0.9464026,0.3781788 l -10e-7,2e-7 C 11.040217,1.59398 11.156991,1.2666038 11.225648,0.93374231 l 0.784455,0.72444999 0.704252,-0.2186812 -0.0209,0.014605 4.166857,6.0618976 -0.254675,0.1748555 1.616754,2.3522976 C 18.910287,9.9016472 19.44009,9.5619107 19.763564,8.984002 L 18.14681,6.6317051 17.892629,6.8064079 13.942384,1.0587273 14.707832,0.82104356 14.237215,-0.69455388 13.785645,-0.55433423 C 13.87243,-0.82353272 13.733922,-1.114792 13.46639,-1.2165342 L 12.459451,-1.599724 c -0.12091,-0.045979 -0.24773,-0.045253 -0.360917,-0.00697 -0.145526,0.049221 -0.268594,0.1605824 -0.327714,0.3160378 l -0.159554,0.42020025 -0.402244,-0.37183055 -0.795525,0.8622587 -0.393543,0.10055718 z"
         transform="rotate(15)"
         sodipodi:nodetypes="cccccsccccccccccccccccccccccccccccccccccscccccc" />
    </g>
  </g>
</svg>
